<?xml version="1.0" encoding="UTF-8" standalone="no"?>
<!-- Created with Inkscape (http://www.inkscape.org/) -->

<svg
   width="123.06865mm"
   height="148.71053mm"
   viewBox="0 0 123.06865 148.71053"
   version="1.1"
   id="svg1"
   xml:space="preserve"
   inkscape:export-filename="bitmap.svg"
   inkscape:export-xdpi="96"
   inkscape:export-ydpi="96"
   xmlns:inkscape="http://www.inkscape.org/namespaces/inkscape"
   xmlns:sodipodi="http://sodipodi.sourceforge.net/DTD/sodipodi-0.dtd"
   xmlns="http://www.w3.org/2000/svg"
   xmlns:svg="http://www.w3.org/2000/svg"><sodipodi:namedview
     id="namedview1"
     pagecolor="#505050"
     bordercolor="#eeeeee"
     borderopacity="1"
     inkscape:showpageshadow="0"
     inkscape:pageopacity="0"
     inkscape:pagecheckerboard="0"
     inkscape:deskcolor="#505050"
     inkscape:document-units="mm"
     showguides="true"
     inkscape:lockguides="true" /><defs
     id="defs1"><inkscape:path-effect
       effect="powerclip"
       id="path-effect181"
       is_visible="true"
       lpeversion="1"
       inverse="true"
       flatten="false"
       hide_clip="false"
       message="Use fill-rule evenodd on &lt;b&gt;fill and stroke&lt;/b&gt; dialog if no flatten result after convert clip to paths." /><clipPath
       clipPathUnits="userSpaceOnUse"
       id="clipPath181"><path
         id="path181"
         style="display:none;fill:#ffffff;stroke:#ffffff;stroke-width:7.29401;stroke-linecap:square;stroke-linejoin:bevel;stroke-dasharray:none;paint-order:markers stroke fill"
         d="m 718.77404,224.63082 c -3.48054,0.11451 -6.65432,5.30833 -7.50133,8.57035 -4.40129,10.94711 -10.87427,21.28877 -19.95588,28.9526 -3.3994,2.8512 -7.27136,5.02161 -11.18487,6.95711 -11.10101,5.38258 -22.21605,11.14293 -31.54539,19.33303 -5.6405,4.93853 -10.45703,11.11509 -12.66635,18.36269 -1.59414,5.03566 -1.46177,10.38511 -1.45513,15.60624 0.079,3.78134 0.0595,7.56256 0.0122,11.34379 0.74319,13.82419 -3.68204,-9.39429 7.89038,2.58422 0,-0.91718 7.98018,11.46892 7.97917,10.55174 0.98089,-7.85355 44.12081,-0.69387 60.92259,-14.25771 15.85907,-12.51675 26.26154,-31.83829 27.55045,-52.04198 1.32549,-17.65668 -3.37619,-35.86227 -13.76796,-50.27259 -1.46251,-1.94881 -3.75269,-5.8148 -6.27777,-5.68949 -0.10189,0.003 0.10165,-0.006 0,0 z m -76.1732,122.9727 c 0.59598,0.24649 -0.39319,1.03786 -0.3457,0.31835 0.0314,-0.14954 0.16105,-0.37904 0.3457,-0.31835 z"
         sodipodi:nodetypes="ccccccccccccccccccc" /><path
         id="lpe_path-effect181"
         style="fill:#ffffff;stroke:#ffffff;stroke-width:7.29401;stroke-linecap:square;stroke-linejoin:bevel;stroke-dasharray:none;paint-order:markers stroke fill"
         class="powerclip"
         d="M 606.71972,191.73476 H 723.97398 V 350.44528 H 606.71972 Z m 112.05432,32.89606 c -3.48054,0.11451 -6.65432,5.30833 -7.50133,8.57035 -4.40129,10.94711 -10.87427,21.28877 -19.95588,28.9526 -3.3994,2.8512 -7.27136,5.02161 -11.18487,6.95711 -11.10101,5.38258 -22.21605,11.14293 -31.54539,19.33303 -5.6405,4.93853 -10.45703,11.11509 -12.66635,18.36269 -1.59414,5.03566 -1.46177,10.38511 -1.45513,15.60624 0.079,3.78134 0.0595,7.56256 0.0122,11.34379 0.74319,13.82419 -3.68204,-9.39429 7.89038,2.58422 0,-0.91718 7.98018,11.46892 7.97917,10.55174 0.98089,-7.85355 44.12081,-0.69387 60.92259,-14.25771 15.85907,-12.51675 26.26154,-31.83829 27.55045,-52.04198 1.32549,-17.65668 -3.37619,-35.86227 -13.76796,-50.27259 -1.46251,-1.94881 -3.75269,-5.8148 -6.27777,-5.68949 -0.10189,0.003 0.10165,-0.006 0,0 z m -76.1732,122.9727 c -0.18465,-0.0607 -0.3143,0.16881 -0.3457,0.31835 -0.0475,0.71951 0.94168,-0.0719 0.3457,-0.31835 z" /></clipPath></defs><g
     inkscape:label="Layer 1"
     inkscape:groupmode="layer"
     id="layer1"
     transform="translate(-611.71968,-196.73477)"><g
       id="g102"
       clip-path="url(#clipPath181)"
       inkscape:path-effect="#path-effect181"
       inkscape:export-filename="./g102.svg"
       inkscape:export-xdpi="96"
       inkscape:export-ydpi="96"><path
         style="fill:none;stroke:#000000;stroke-width:7.29401;stroke-linecap:round;stroke-dasharray:none"
         d="M 624.06343,341.79827 V 231.83334"
         id="path80"
         inkscape:original-d="M 624.06343,341.79827 V 231.83334" /><path
         style="fill:none;stroke:#000000;stroke-width:7.29401;stroke-dasharray:none"
         d="M 613.72777,237.63631 671.1229,199.77916"
         id="path81"
         sodipodi:nodetypes="cc"
         inkscape:original-d="M 613.72777,237.63631 671.1229,199.77916" /><path
         id="path82"
         style="fill:none;stroke:#000000;stroke-width:7.29401;stroke-dasharray:none"
         d="M 716.96593,232.67615 667.09088,199.77916"
         inkscape:original-d="M 716.96593,232.67615 667.09088,199.77916" /><g
         id="g84"
         transform="translate(207.0774)"><path
           style="fill:#000000;stroke:none;stroke-width:10.7951;stroke-dasharray:none"
           id="rect82"
           width="13.433985"
           height="13.433985"
           x="431.70294"
           y="237.09167"
           sodipodi:type="rect"
           d="m 431.70294,237.09167 h 13.43399 v 13.43399 h -13.43399 z" /><path
           style="fill:#000000;stroke:none;stroke-width:10.7951;stroke-dasharray:none"
           id="rect83"
           width="13.433985"
           height="13.433985"
           x="455.1799"
           y="237.09167"
           sodipodi:type="rect"
           d="m 455.1799,237.09167 h 13.43399 v 13.43399 H 455.1799 Z" /><path
           style="fill:#000000;stroke:none;stroke-width:10.7951;stroke-dasharray:none"
           id="rect84"
           width="13.433985"
           height="13.433985"
           x="478.65686"
           y="237.09167"
           sodipodi:type="rect"
           d="m 478.65686,237.09167 h 13.43399 v 13.43399 h -13.43399 z" /></g><g
         id="g87"
         transform="translate(207.0774)"><path
           style="fill:#000000;stroke:none;stroke-width:10.7951;stroke-dasharray:none"
           id="rect85"
           width="13.433985"
           height="13.433985"
           x="431.70294"
           y="261.73138"
           sodipodi:type="rect"
           d="m 431.70294,261.73138 h 13.43399 v 13.43399 h -13.43399 z" /><path
           style="fill:#000000;stroke:none;stroke-width:10.7951;stroke-dasharray:none"
           id="rect86"
           width="13.433985"
           height="13.433985"
           x="455.1799"
           y="261.73138"
           sodipodi:type="rect"
           d="m 455.1799,261.73138 h 13.43399 v 13.43399 H 455.1799 Z" /><path
           style="fill:#000000;stroke:none;stroke-width:10.7951;stroke-dasharray:none"
           id="rect87"
           width="13.433985"
           height="13.433985"
           x="478.65686"
           y="261.73138"
           sodipodi:type="rect"
           d="m 478.65686,261.73138 h 13.43399 v 13.43399 h -13.43399 z" /></g><g
         id="g90"
         transform="translate(207.0774)"><path
           style="fill:#000000;stroke:none;stroke-width:10.7951;stroke-dasharray:none"
           id="rect88"
           width="13.433985"
           height="13.433985"
           x="431.70294"
           y="286.37109"
           sodipodi:type="rect"
           d="m 431.70294,286.37109 h 13.43399 v 13.43399 h -13.43399 z" /><path
           style="fill:#000000;stroke:none;stroke-width:10.7951;stroke-dasharray:none"
           id="rect89"
           width="13.433985"
           height="13.433985"
           x="455.1799"
           y="286.37109"
           sodipodi:type="rect"
           d="m 455.1799,286.37109 h 13.43399 v 13.43399 H 455.1799 Z" /><path
           style="fill:#000000;stroke:none;stroke-width:10.7951;stroke-dasharray:none"
           id="rect90"
           width="13.433985"
           height="13.433985"
           x="478.65686"
           y="286.37109"
           sodipodi:type="rect"
           d="m 478.65686,286.37109 h 13.43399 v 13.43399 h -13.43399 z" /></g><path
         style="fill:#000000;stroke:none;stroke-width:10.7951;stroke-dasharray:none"
         id="rect91"
         width="13.433985"
         height="13.433985"
         x="638.78033"
         y="237.09167"
         sodipodi:type="rect"
         d="m 638.78033,237.09167 h 13.43399 v 13.43399 h -13.43399 z" /><path
         style="fill:#000000;stroke:none;stroke-width:10.7951;stroke-dasharray:none"
         id="rect92"
         width="13.433985"
         height="13.433985"
         x="638.78033"
         y="261.73138"
         sodipodi:type="rect"
         d="m 638.78033,261.73138 h 13.43399 v 13.43399 h -13.43399 z" /><path
         style="fill:#000000;stroke:none;stroke-width:10.7951;stroke-dasharray:none"
         id="rect93"
         width="13.433985"
         height="13.433985"
         x="638.78033"
         y="286.37109"
         sodipodi:type="rect"
         d="m 638.78033,286.37109 h 13.43399 v 13.43399 h -13.43399 z" /><path
         style="fill:#000000;stroke:none;stroke-width:10.7951;stroke-dasharray:none"
         id="rect94"
         width="13.433985"
         height="13.433985"
         x="662.25732"
         y="237.09167"
         sodipodi:type="rect"
         d="m 662.25732,237.09167 h 13.43399 v 13.43399 h -13.43399 z" /><path
         style="fill:#000000;stroke:none;stroke-width:10.7951;stroke-dasharray:none"
         id="rect95"
         width="13.433985"
         height="13.433985"
         x="662.25732"
         y="261.73138"
         sodipodi:type="rect"
         d="m 662.25732,261.73138 h 13.43399 v 13.43399 h -13.43399 z" /><path
         style="fill:#000000;stroke:none;stroke-width:10.7951;stroke-dasharray:none"
         id="rect96"
         width="13.433985"
         height="13.433985"
         x="662.25732"
         y="286.37109"
         sodipodi:type="rect"
         d="m 662.25732,286.37109 h 13.43399 v 13.43399 h -13.43399 z" /><path
         style="fill:#000000;stroke:none;stroke-width:10.7951;stroke-dasharray:none"
         id="rect97"
         width="13.433985"
         height="13.433985"
         x="685.73425"
         y="237.09167"
         sodipodi:type="rect"
         d="m 685.73425,237.09167 h 13.43399 v 13.43399 h -13.43399 z" /><path
         style="fill:#000000;stroke:none;stroke-width:10.7951;stroke-dasharray:none"
         id="rect98"
         width="13.433985"
         height="13.433985"
         x="685.73425"
         y="261.73138"
         sodipodi:type="rect"
         d="m 685.73425,261.73138 h 13.43399 v 13.43399 h -13.43399 z" /><path
         style="fill:#000000;stroke:none;stroke-width:10.7951;stroke-dasharray:none"
         id="rect99"
         width="13.433985"
         height="13.433985"
         x="685.73425"
         y="286.37109"
         sodipodi:type="rect"
         d="m 685.73425,286.37109 h 13.43399 v 13.43399 h -13.43399 z" /></g><path
       id="path100"
       style="fill:none;stroke:#000000;stroke-width:7.294;stroke-linecap:round;stroke-dasharray:none"
       d="m 642.42532,341.79827 v -25.75526 c 0,-17.97158 19.83198,-29.67193 43.30894,-40.87764 23.47695,-11.20572 33.21259,-39.77355 33.21259,-39.77355 v 0 0 c 8.19568,11.21293 12.19452,25.88471 12.19452,39.77352 v 0 c 0,36.15556 -29.30987,65.46544 -65.46543,65.46544 -7.96575,0 -15.86462,-1.4538 -23.30838,-4.28993"
       sodipodi:nodetypes="csscccsssc" /><path
       style="fill:none;stroke:#000000;stroke-width:7.294;stroke-linecap:round;stroke-dasharray:none"
       d="m 642.36757,336.34084 c 22.03918,-12.00738 48.16103,-29.66257 65.30903,-49.96975"
       id="path102"
       sodipodi:nodetypes="cc" /></g></svg>
